# xmcd CD database file
#
# Track frame offsets:
#	150
#	16670
#	31915
#	47549
#	63995
#	79238
#	93921
#	109549
#	124892
#	137754
#	149581
#	164847
#
# Disc length: 2403 seconds
#
# Revision: 10
# Processed by: cddbd v1.5.2PL0 Copyright (c) Steve Scherf et al.
# Submitted via: CDex 1.91
#
DISCID=9e09610c
DTITLE=Gabriella Cilmi - Lessons to be learned
DYEAR=2008
DGENRE=Pop
TTITLE0=Save the lies
TTITLE1=Sweet about me
TTITLE2=Sanctuary
TTITLE3=Einstein
TTITLE4=Got no place to go
TTITLE5=Don't want to go to bed now
TTITLE6=Awkward game
TTITLE7=Safer
TTITLE8=Cigarettes and lies
TTITLE9=Terrifying
TTITLE10=Sit in the blues
TTITLE11=Echo beach
EXTD=YEAR: 2008
EXTT0=
EXTT1=
EXTT2=
EXTT3=
EXTT4=
EXTT5=
EXTT6=
EXTT7=
EXTT8=
EXTT9=
EXTT10=
EXTT11=
PLAYORDER=
